%FSLAX34Y34*%
G04 Gerber Fmt 3.4, Leading zero omitted, Abs format*
G04 (created by PCBNEW (2014-05-13 BZR 4864)-product) date Mi 14 Mai 2014 11:17:40 CEST*
%MOIN*%
G01*
G70*
G90*
G04 APERTURE LIST*
%ADD10C,0.003937*%
%ADD11R,0.055000X0.055000*%
%ADD12C,0.055000*%
%ADD13R,0.025000X0.045000*%
%ADD14R,0.045000X0.025000*%
%ADD15C,0.060000*%
%ADD16C,0.106300*%
%ADD17O,0.118700X0.059300*%
%ADD18R,0.100000X0.100000*%
%ADD19C,0.100000*%
%ADD20O,0.066900X0.137800*%
%ADD21R,0.055000X0.035000*%
%ADD22R,0.035000X0.055000*%
%ADD23C,0.059055*%
%ADD24C,0.070000*%
%ADD25R,0.059055X0.059055*%
%ADD26R,0.055000X0.059055*%
%ADD27R,0.059055X0.055000*%
%ADD28C,0.150000*%
%ADD29R,0.150000X0.150000*%
%ADD30C,0.020000*%
G04 APERTURE END LIST*
G54D10*
G54D11*
X43809Y-25222D03*
G54D12*
X44809Y-25222D03*
X45809Y-25222D03*
X46809Y-25222D03*
X47809Y-25222D03*
G54D13*
X43629Y-42787D03*
X44229Y-42787D03*
X40179Y-36737D03*
X39579Y-36737D03*
G54D14*
X38929Y-40587D03*
X38929Y-41187D03*
X38929Y-38687D03*
X38929Y-39287D03*
G54D13*
X44129Y-36737D03*
X43529Y-36737D03*
G54D15*
X23829Y-28737D03*
X23829Y-27737D03*
X23042Y-27737D03*
X23042Y-28737D03*
G54D16*
X21979Y-30599D03*
X21979Y-25875D03*
G54D17*
X21229Y-44637D03*
X21229Y-43637D03*
X58350Y-32250D03*
X58350Y-31250D03*
X49725Y-35475D03*
X49725Y-34475D03*
G54D18*
X33400Y-10973D03*
G54D19*
X31400Y-10973D03*
G54D18*
X22880Y-10973D03*
G54D19*
X20880Y-10973D03*
G54D18*
X38715Y-10973D03*
G54D19*
X36715Y-10973D03*
G54D18*
X28195Y-10973D03*
G54D19*
X26195Y-10973D03*
G54D20*
X32203Y-14910D03*
X33203Y-14910D03*
X31203Y-14910D03*
X21880Y-14910D03*
X22880Y-14910D03*
X20880Y-14910D03*
X27195Y-14910D03*
X28195Y-14910D03*
X26195Y-14910D03*
X37715Y-14910D03*
X38715Y-14910D03*
X36715Y-14910D03*
G54D21*
X43229Y-44212D03*
X43229Y-43462D03*
X38829Y-43412D03*
X38829Y-42662D03*
G54D22*
X40504Y-44087D03*
X39754Y-44087D03*
G54D23*
X53863Y-53737D03*
X51895Y-54721D03*
X51895Y-52752D03*
X56229Y-25821D03*
X55245Y-23852D03*
X57213Y-23852D03*
X50129Y-25821D03*
X49145Y-23852D03*
X51113Y-23852D03*
X53079Y-25821D03*
X52095Y-23852D03*
X54063Y-23852D03*
X57345Y-28687D03*
X59313Y-27702D03*
X59313Y-29671D03*
G54D12*
X40688Y-50629D03*
X34688Y-45629D03*
X35688Y-45629D03*
X36688Y-45629D03*
X37688Y-45629D03*
X38688Y-45629D03*
X39688Y-45629D03*
X40688Y-45629D03*
G54D11*
X41688Y-45629D03*
G54D12*
X41688Y-50629D03*
X39688Y-50629D03*
X38688Y-50629D03*
X37688Y-50629D03*
X36688Y-50629D03*
X35688Y-50629D03*
X34688Y-50629D03*
X57224Y-50629D03*
X51224Y-45629D03*
X52224Y-45629D03*
X53224Y-45629D03*
X54224Y-45629D03*
X55224Y-45629D03*
X56224Y-45629D03*
X57224Y-45629D03*
G54D11*
X58224Y-45629D03*
G54D12*
X58224Y-50629D03*
X56224Y-50629D03*
X55224Y-50629D03*
X54224Y-50629D03*
X53224Y-50629D03*
X52224Y-50629D03*
X51224Y-50629D03*
X32429Y-50637D03*
X26429Y-45637D03*
X27429Y-45637D03*
X28429Y-45637D03*
X29429Y-45637D03*
X30429Y-45637D03*
X31429Y-45637D03*
X32429Y-45637D03*
G54D11*
X33429Y-45637D03*
G54D12*
X33429Y-50637D03*
X31429Y-50637D03*
X30429Y-50637D03*
X29429Y-50637D03*
X28429Y-50637D03*
X27429Y-50637D03*
X26429Y-50637D03*
X48579Y-17037D03*
X54579Y-22037D03*
X53579Y-22037D03*
X52579Y-22037D03*
X51579Y-22037D03*
X50579Y-22037D03*
X49579Y-22037D03*
X48579Y-22037D03*
G54D11*
X47579Y-22037D03*
G54D12*
X47579Y-17037D03*
X49579Y-17037D03*
X50579Y-17037D03*
X51579Y-17037D03*
X52579Y-17037D03*
X53579Y-17037D03*
X54579Y-17037D03*
X48956Y-50629D03*
X42956Y-45629D03*
X43956Y-45629D03*
X44956Y-45629D03*
X45956Y-45629D03*
X46956Y-45629D03*
X47956Y-45629D03*
X48956Y-45629D03*
G54D11*
X49956Y-45629D03*
G54D12*
X49956Y-50629D03*
X47956Y-50629D03*
X46956Y-50629D03*
X45956Y-50629D03*
X44956Y-50629D03*
X43956Y-50629D03*
X42956Y-50629D03*
G54D13*
X41729Y-42787D03*
X42329Y-42787D03*
X39729Y-42787D03*
X40329Y-42787D03*
G54D24*
X24129Y-51037D03*
X23129Y-51037D03*
X22129Y-51037D03*
X22129Y-54037D03*
X23129Y-54037D03*
X24129Y-54037D03*
X59329Y-40937D03*
X58329Y-40937D03*
X57329Y-40937D03*
X57329Y-43937D03*
X58329Y-43937D03*
X59329Y-43937D03*
X23279Y-41837D03*
X23279Y-42837D03*
X23279Y-43837D03*
X26279Y-43837D03*
X26279Y-42837D03*
X26279Y-41837D03*
X57279Y-21937D03*
X58279Y-21937D03*
X59279Y-21937D03*
X59279Y-18937D03*
X58279Y-18937D03*
X57279Y-18937D03*
X24179Y-46237D03*
X23179Y-46237D03*
X22179Y-46237D03*
X22179Y-49237D03*
X23179Y-49237D03*
X24179Y-49237D03*
G54D25*
X25029Y-35787D03*
G54D23*
X25029Y-34787D03*
X25029Y-33787D03*
G54D25*
X21883Y-35787D03*
G54D23*
X21883Y-34787D03*
X21883Y-33787D03*
G54D25*
X25029Y-38987D03*
G54D23*
X25029Y-37987D03*
X25029Y-36987D03*
G54D25*
X21879Y-38987D03*
G54D23*
X21879Y-37987D03*
X21879Y-36987D03*
G54D25*
X28579Y-44137D03*
G54D23*
X28579Y-43137D03*
X28579Y-42137D03*
G54D25*
X31979Y-44137D03*
G54D23*
X31979Y-43137D03*
X31979Y-42137D03*
G54D26*
X49629Y-39787D03*
G54D23*
X49629Y-38787D03*
X49629Y-37787D03*
X49629Y-36787D03*
G54D26*
X43920Y-29348D03*
G54D23*
X43920Y-30348D03*
X43920Y-31348D03*
X43920Y-32348D03*
G54D25*
X28662Y-40460D03*
G54D23*
X28662Y-39460D03*
G54D25*
X28662Y-38295D03*
G54D23*
X28662Y-37295D03*
G54D25*
X28662Y-36129D03*
G54D23*
X28662Y-35129D03*
G54D25*
X28662Y-33964D03*
G54D23*
X28662Y-32964D03*
G54D27*
X34850Y-53444D03*
G54D23*
X35850Y-53444D03*
X36850Y-53444D03*
X37850Y-53444D03*
G54D27*
X55079Y-53487D03*
G54D23*
X56079Y-53487D03*
X57079Y-53487D03*
X58079Y-53487D03*
G54D27*
X26435Y-53346D03*
G54D23*
X27435Y-53346D03*
X28435Y-53346D03*
X29435Y-53346D03*
G54D27*
X56479Y-14787D03*
G54D23*
X55479Y-14787D03*
X54479Y-14787D03*
X53479Y-14787D03*
G54D27*
X43511Y-53444D03*
G54D23*
X44511Y-53444D03*
X45511Y-53444D03*
X46511Y-53444D03*
G54D28*
X50047Y-11023D03*
X48047Y-11023D03*
G54D29*
X52047Y-11023D03*
G54D28*
X46047Y-11023D03*
X44047Y-11023D03*
X42047Y-11023D03*
G54D25*
X54479Y-28937D03*
G54D23*
X55479Y-28937D03*
G54D25*
X51729Y-28937D03*
G54D23*
X52729Y-28937D03*
G54D25*
X48929Y-28937D03*
G54D23*
X49929Y-28937D03*
G54D25*
X57879Y-34787D03*
G54D23*
X57879Y-33787D03*
G54D13*
X42129Y-36737D03*
X41529Y-36737D03*
G54D30*
X35500Y-44300D03*
X35150Y-44200D03*
X50850Y-13750D03*
X50600Y-13750D03*
X50350Y-13750D03*
X33429Y-36237D03*
X32779Y-36137D03*
X31329Y-21087D03*
X31029Y-21087D03*
X30729Y-21087D03*
X30429Y-21087D03*
X30129Y-21087D03*
X29779Y-21087D03*
X29479Y-21087D03*
X54775Y-42225D03*
X54325Y-42275D03*
X50325Y-53375D03*
X50625Y-53375D03*
X50925Y-53375D03*
X48125Y-43387D03*
X47475Y-43387D03*
X47775Y-43387D03*
X44279Y-39687D03*
X42925Y-41025D03*
X41829Y-39287D03*
X24875Y-22675D03*
X24879Y-21887D03*
X41929Y-37137D03*
X43879Y-37237D03*
X39979Y-37237D03*
X38329Y-38837D03*
X39379Y-40687D03*
X39979Y-42387D03*
X44279Y-17587D03*
X45579Y-18887D03*
X35079Y-22137D03*
X40779Y-38187D03*
X46179Y-32487D03*
X49029Y-32587D03*
X51179Y-32037D03*
X47479Y-36037D03*
X48179Y-51187D03*
X34929Y-37037D03*
X34929Y-38037D03*
X34929Y-39037D03*
X34929Y-40037D03*
X26200Y-34550D03*
X41929Y-43237D03*
X43829Y-42287D03*
X43775Y-41025D03*
X42825Y-21775D03*
X42525Y-21775D03*
X42225Y-21775D03*
X41925Y-21775D03*
X41625Y-21775D03*
X41325Y-21775D03*
X44329Y-38587D03*
X54100Y-11100D03*
X40329Y-42337D03*
X24779Y-49587D03*
X41729Y-36287D03*
X43729Y-36287D03*
X39579Y-36287D03*
X39379Y-39037D03*
X42179Y-42337D03*
X44179Y-43237D03*
X38379Y-40787D03*
X44379Y-40887D03*
X47479Y-30587D03*
X48429Y-29737D03*
X50029Y-29837D03*
X51429Y-29937D03*
X45929Y-31637D03*
X45279Y-43887D03*
X53629Y-46587D03*
X53229Y-46987D03*
X39579Y-37637D03*
X43929Y-47887D03*
X43929Y-48637D03*
X57850Y-9850D03*
X56950Y-13250D03*
X25879Y-51037D03*
X49150Y-24700D03*
X47400Y-19250D03*
X46300Y-18150D03*
X43729Y-44237D03*
X39379Y-43337D03*
X40979Y-44287D03*
X46179Y-43987D03*
X46029Y-45137D03*
X46329Y-47587D03*
X46829Y-48037D03*
X41529Y-35437D03*
X43079Y-33937D03*
X41279Y-35187D03*
X42779Y-33687D03*
X45300Y-27650D03*
X44750Y-27450D03*
X33929Y-32737D03*
X33929Y-31137D03*
X33629Y-32737D03*
X33629Y-31137D03*
X33329Y-31137D03*
X33329Y-32737D03*
X33029Y-32737D03*
X33029Y-31187D03*
X38029Y-47437D03*
X39329Y-47437D03*
X44979Y-35887D03*
X44629Y-36737D03*
X44979Y-35587D03*
X44429Y-37437D03*
X45079Y-35237D03*
X44779Y-37087D03*
X39029Y-47737D03*
X37679Y-47737D03*
X37279Y-48037D03*
X38679Y-48037D03*
X36879Y-48437D03*
X38329Y-48437D03*
X57950Y-14850D03*
X57950Y-13400D03*
M02*
