%FSLAX34Y34*%
G04 Gerber Fmt 3.4, Leading zero omitted, Abs format*
G04 (created by PCBNEW (2014-05-13 BZR 4864)-product) date Mi 14 Mai 2014 11:17:40 CEST*
%MOIN*%
G01*
G70*
G90*
G04 APERTURE LIST*
%ADD10C,0.003937*%
%ADD11C,0.004700*%
%ADD12C,0.003900*%
%ADD13C,0.004500*%
%ADD14C,0.004300*%
G04 APERTURE END LIST*
G54D10*
G54D11*
X44126Y-42531D02*
X44401Y-42531D01*
X43732Y-42531D02*
X43457Y-42531D01*
X44126Y-43043D02*
X44401Y-43043D01*
X43457Y-43043D02*
X43732Y-43043D01*
X44401Y-43037D02*
X44401Y-42537D01*
X43457Y-42537D02*
X43457Y-43037D01*
X39682Y-36993D02*
X39407Y-36993D01*
X40076Y-36993D02*
X40351Y-36993D01*
X39682Y-36481D02*
X39407Y-36481D01*
X40351Y-36481D02*
X40076Y-36481D01*
X39407Y-36487D02*
X39407Y-36987D01*
X40351Y-36987D02*
X40351Y-36487D01*
X39185Y-41084D02*
X39185Y-41359D01*
X39185Y-40690D02*
X39185Y-40415D01*
X38673Y-41084D02*
X38673Y-41359D01*
X38673Y-40415D02*
X38673Y-40690D01*
X38679Y-41359D02*
X39179Y-41359D01*
X39179Y-40415D02*
X38679Y-40415D01*
X39185Y-39184D02*
X39185Y-39459D01*
X39185Y-38790D02*
X39185Y-38515D01*
X38673Y-39184D02*
X38673Y-39459D01*
X38673Y-38515D02*
X38673Y-38790D01*
X38679Y-39459D02*
X39179Y-39459D01*
X39179Y-38515D02*
X38679Y-38515D01*
X43632Y-36993D02*
X43357Y-36993D01*
X44026Y-36993D02*
X44301Y-36993D01*
X43632Y-36481D02*
X43357Y-36481D01*
X44301Y-36481D02*
X44026Y-36481D01*
X43357Y-36487D02*
X43357Y-36987D01*
X44301Y-36987D02*
X44301Y-36487D01*
G54D12*
X42979Y-44487D02*
G75*
G03X42979Y-44487I-50J0D01*
G74*
G01*
X42929Y-44037D02*
X42929Y-44437D01*
X42929Y-44437D02*
X43529Y-44437D01*
X43529Y-44437D02*
X43529Y-44037D01*
X43529Y-43637D02*
X43529Y-43237D01*
X43529Y-43237D02*
X42929Y-43237D01*
X42929Y-43237D02*
X42929Y-43637D01*
X38579Y-43687D02*
G75*
G03X38579Y-43687I-50J0D01*
G74*
G01*
X38529Y-43237D02*
X38529Y-43637D01*
X38529Y-43637D02*
X39129Y-43637D01*
X39129Y-43637D02*
X39129Y-43237D01*
X39129Y-42837D02*
X39129Y-42437D01*
X39129Y-42437D02*
X38529Y-42437D01*
X38529Y-42437D02*
X38529Y-42837D01*
X40829Y-44387D02*
G75*
G03X40829Y-44387I-50J0D01*
G74*
G01*
X40329Y-44387D02*
X40729Y-44387D01*
X40729Y-44387D02*
X40729Y-43787D01*
X40729Y-43787D02*
X40329Y-43787D01*
X39929Y-43787D02*
X39529Y-43787D01*
X39529Y-43787D02*
X39529Y-44387D01*
X39529Y-44387D02*
X39929Y-44387D01*
G54D11*
X42226Y-42531D02*
X42501Y-42531D01*
X41832Y-42531D02*
X41557Y-42531D01*
X42226Y-43043D02*
X42501Y-43043D01*
X41557Y-43043D02*
X41832Y-43043D01*
X42501Y-43037D02*
X42501Y-42537D01*
X41557Y-42537D02*
X41557Y-43037D01*
X40226Y-42531D02*
X40501Y-42531D01*
X39832Y-42531D02*
X39557Y-42531D01*
X40226Y-43043D02*
X40501Y-43043D01*
X39557Y-43043D02*
X39832Y-43043D01*
X40501Y-43037D02*
X40501Y-42537D01*
X39557Y-42537D02*
X39557Y-43037D01*
X41632Y-36993D02*
X41357Y-36993D01*
X42026Y-36993D02*
X42301Y-36993D01*
X41632Y-36481D02*
X41357Y-36481D01*
X42301Y-36481D02*
X42026Y-36481D01*
X41357Y-36487D02*
X41357Y-36987D01*
X42301Y-36987D02*
X42301Y-36487D01*
G54D10*
X22491Y-30599D02*
G75*
G03X22491Y-30599I-511J0D01*
G74*
G01*
G54D13*
X44000Y-42757D02*
X44010Y-42748D01*
X44020Y-42722D01*
X44020Y-42705D01*
X44010Y-42679D01*
X43991Y-42662D01*
X43972Y-42654D01*
X43934Y-42645D01*
X43905Y-42645D01*
X43867Y-42654D01*
X43848Y-42662D01*
X43829Y-42679D01*
X43820Y-42705D01*
X43820Y-42722D01*
X43829Y-42748D01*
X43839Y-42757D01*
X43886Y-42911D02*
X44020Y-42911D01*
X43810Y-42868D02*
X43953Y-42825D01*
X43953Y-42937D01*
X43370Y-42585D02*
X43370Y-42482D01*
X43370Y-42534D02*
X43170Y-42534D01*
X43198Y-42517D01*
X43217Y-42499D01*
X43227Y-42482D01*
X43170Y-42697D02*
X43170Y-42714D01*
X43179Y-42731D01*
X43189Y-42739D01*
X43208Y-42748D01*
X43246Y-42757D01*
X43293Y-42757D01*
X43331Y-42748D01*
X43350Y-42739D01*
X43360Y-42731D01*
X43370Y-42714D01*
X43370Y-42697D01*
X43360Y-42679D01*
X43350Y-42671D01*
X43331Y-42662D01*
X43293Y-42654D01*
X43246Y-42654D01*
X43208Y-42662D01*
X43189Y-42671D01*
X43179Y-42679D01*
X43170Y-42697D01*
X43170Y-42868D02*
X43170Y-42885D01*
X43179Y-42902D01*
X43189Y-42911D01*
X43208Y-42919D01*
X43246Y-42928D01*
X43293Y-42928D01*
X43331Y-42919D01*
X43350Y-42911D01*
X43360Y-42902D01*
X43370Y-42885D01*
X43370Y-42868D01*
X43360Y-42851D01*
X43350Y-42842D01*
X43331Y-42834D01*
X43293Y-42825D01*
X43246Y-42825D01*
X43208Y-42834D01*
X43189Y-42842D01*
X43179Y-42851D01*
X43170Y-42868D01*
X43236Y-43005D02*
X43370Y-43005D01*
X43255Y-43005D02*
X43246Y-43014D01*
X43236Y-43031D01*
X43236Y-43057D01*
X43246Y-43074D01*
X43265Y-43082D01*
X43370Y-43082D01*
X39950Y-36707D02*
X39960Y-36698D01*
X39970Y-36672D01*
X39970Y-36655D01*
X39960Y-36629D01*
X39941Y-36612D01*
X39922Y-36604D01*
X39884Y-36595D01*
X39855Y-36595D01*
X39817Y-36604D01*
X39798Y-36612D01*
X39779Y-36629D01*
X39770Y-36655D01*
X39770Y-36672D01*
X39779Y-36698D01*
X39789Y-36707D01*
X39855Y-36809D02*
X39846Y-36792D01*
X39836Y-36784D01*
X39817Y-36775D01*
X39808Y-36775D01*
X39789Y-36784D01*
X39779Y-36792D01*
X39770Y-36809D01*
X39770Y-36844D01*
X39779Y-36861D01*
X39789Y-36869D01*
X39808Y-36878D01*
X39817Y-36878D01*
X39836Y-36869D01*
X39846Y-36861D01*
X39855Y-36844D01*
X39855Y-36809D01*
X39865Y-36792D01*
X39874Y-36784D01*
X39893Y-36775D01*
X39931Y-36775D01*
X39950Y-36784D01*
X39960Y-36792D01*
X39970Y-36809D01*
X39970Y-36844D01*
X39960Y-36861D01*
X39950Y-36869D01*
X39931Y-36878D01*
X39893Y-36878D01*
X39874Y-36869D01*
X39865Y-36861D01*
X39855Y-36844D01*
X40620Y-36535D02*
X40620Y-36432D01*
X40620Y-36484D02*
X40420Y-36484D01*
X40448Y-36467D01*
X40467Y-36449D01*
X40477Y-36432D01*
X40420Y-36647D02*
X40420Y-36664D01*
X40429Y-36681D01*
X40439Y-36689D01*
X40458Y-36698D01*
X40496Y-36707D01*
X40543Y-36707D01*
X40581Y-36698D01*
X40600Y-36689D01*
X40610Y-36681D01*
X40620Y-36664D01*
X40620Y-36647D01*
X40610Y-36629D01*
X40600Y-36621D01*
X40581Y-36612D01*
X40543Y-36604D01*
X40496Y-36604D01*
X40458Y-36612D01*
X40439Y-36621D01*
X40429Y-36629D01*
X40420Y-36647D01*
X40420Y-36818D02*
X40420Y-36835D01*
X40429Y-36852D01*
X40439Y-36861D01*
X40458Y-36869D01*
X40496Y-36878D01*
X40543Y-36878D01*
X40581Y-36869D01*
X40600Y-36861D01*
X40610Y-36852D01*
X40620Y-36835D01*
X40620Y-36818D01*
X40610Y-36801D01*
X40600Y-36792D01*
X40581Y-36784D01*
X40543Y-36775D01*
X40496Y-36775D01*
X40458Y-36784D01*
X40439Y-36792D01*
X40429Y-36801D01*
X40420Y-36818D01*
X40486Y-36955D02*
X40620Y-36955D01*
X40505Y-36955D02*
X40496Y-36964D01*
X40486Y-36981D01*
X40486Y-37007D01*
X40496Y-37024D01*
X40515Y-37032D01*
X40620Y-37032D01*
X38959Y-40958D02*
X38968Y-40967D01*
X38993Y-40977D01*
X39010Y-40977D01*
X39036Y-40967D01*
X39053Y-40948D01*
X39062Y-40929D01*
X39070Y-40891D01*
X39070Y-40863D01*
X39062Y-40825D01*
X39053Y-40806D01*
X39036Y-40787D01*
X39010Y-40777D01*
X38993Y-40777D01*
X38968Y-40787D01*
X38959Y-40796D01*
X38873Y-40977D02*
X38839Y-40977D01*
X38822Y-40967D01*
X38813Y-40958D01*
X38796Y-40929D01*
X38788Y-40891D01*
X38788Y-40815D01*
X38796Y-40796D01*
X38805Y-40787D01*
X38822Y-40777D01*
X38856Y-40777D01*
X38873Y-40787D01*
X38882Y-40796D01*
X38890Y-40815D01*
X38890Y-40863D01*
X38882Y-40882D01*
X38873Y-40891D01*
X38856Y-40901D01*
X38822Y-40901D01*
X38805Y-40891D01*
X38796Y-40882D01*
X38788Y-40863D01*
X39130Y-40327D02*
X39233Y-40327D01*
X39182Y-40327D02*
X39182Y-40127D01*
X39199Y-40156D01*
X39216Y-40175D01*
X39233Y-40184D01*
X39019Y-40127D02*
X39002Y-40127D01*
X38985Y-40137D01*
X38976Y-40146D01*
X38968Y-40165D01*
X38959Y-40203D01*
X38959Y-40251D01*
X38968Y-40289D01*
X38976Y-40308D01*
X38985Y-40317D01*
X39002Y-40327D01*
X39019Y-40327D01*
X39036Y-40317D01*
X39045Y-40308D01*
X39053Y-40289D01*
X39062Y-40251D01*
X39062Y-40203D01*
X39053Y-40165D01*
X39045Y-40146D01*
X39036Y-40137D01*
X39019Y-40127D01*
X38848Y-40127D02*
X38830Y-40127D01*
X38813Y-40137D01*
X38805Y-40146D01*
X38796Y-40165D01*
X38788Y-40203D01*
X38788Y-40251D01*
X38796Y-40289D01*
X38805Y-40308D01*
X38813Y-40317D01*
X38830Y-40327D01*
X38848Y-40327D01*
X38865Y-40317D01*
X38873Y-40308D01*
X38882Y-40289D01*
X38890Y-40251D01*
X38890Y-40203D01*
X38882Y-40165D01*
X38873Y-40146D01*
X38865Y-40137D01*
X38848Y-40127D01*
X38710Y-40194D02*
X38710Y-40327D01*
X38710Y-40213D02*
X38702Y-40203D01*
X38685Y-40194D01*
X38659Y-40194D01*
X38642Y-40203D01*
X38633Y-40222D01*
X38633Y-40327D01*
X39045Y-39058D02*
X39053Y-39067D01*
X39079Y-39077D01*
X39096Y-39077D01*
X39122Y-39067D01*
X39139Y-39048D01*
X39148Y-39029D01*
X39156Y-38991D01*
X39156Y-38963D01*
X39148Y-38925D01*
X39139Y-38906D01*
X39122Y-38887D01*
X39096Y-38877D01*
X39079Y-38877D01*
X39053Y-38887D01*
X39045Y-38896D01*
X38873Y-39077D02*
X38976Y-39077D01*
X38925Y-39077D02*
X38925Y-38877D01*
X38942Y-38906D01*
X38959Y-38925D01*
X38976Y-38934D01*
X38762Y-38877D02*
X38745Y-38877D01*
X38728Y-38887D01*
X38719Y-38896D01*
X38710Y-38915D01*
X38702Y-38953D01*
X38702Y-39001D01*
X38710Y-39039D01*
X38719Y-39058D01*
X38728Y-39067D01*
X38745Y-39077D01*
X38762Y-39077D01*
X38779Y-39067D01*
X38788Y-39058D01*
X38796Y-39039D01*
X38805Y-39001D01*
X38805Y-38953D01*
X38796Y-38915D01*
X38788Y-38896D01*
X38779Y-38887D01*
X38762Y-38877D01*
X39130Y-38427D02*
X39233Y-38427D01*
X39182Y-38427D02*
X39182Y-38227D01*
X39199Y-38256D01*
X39216Y-38275D01*
X39233Y-38284D01*
X39019Y-38227D02*
X39002Y-38227D01*
X38985Y-38237D01*
X38976Y-38246D01*
X38968Y-38265D01*
X38959Y-38303D01*
X38959Y-38351D01*
X38968Y-38389D01*
X38976Y-38408D01*
X38985Y-38417D01*
X39002Y-38427D01*
X39019Y-38427D01*
X39036Y-38417D01*
X39045Y-38408D01*
X39053Y-38389D01*
X39062Y-38351D01*
X39062Y-38303D01*
X39053Y-38265D01*
X39045Y-38246D01*
X39036Y-38237D01*
X39019Y-38227D01*
X38848Y-38227D02*
X38830Y-38227D01*
X38813Y-38237D01*
X38805Y-38246D01*
X38796Y-38265D01*
X38788Y-38303D01*
X38788Y-38351D01*
X38796Y-38389D01*
X38805Y-38408D01*
X38813Y-38417D01*
X38830Y-38427D01*
X38848Y-38427D01*
X38865Y-38417D01*
X38873Y-38408D01*
X38882Y-38389D01*
X38890Y-38351D01*
X38890Y-38303D01*
X38882Y-38265D01*
X38873Y-38246D01*
X38865Y-38237D01*
X38848Y-38227D01*
X38710Y-38294D02*
X38710Y-38427D01*
X38710Y-38313D02*
X38702Y-38303D01*
X38685Y-38294D01*
X38659Y-38294D01*
X38642Y-38303D01*
X38633Y-38322D01*
X38633Y-38427D01*
X43900Y-36621D02*
X43910Y-36612D01*
X43920Y-36587D01*
X43920Y-36569D01*
X43910Y-36544D01*
X43891Y-36527D01*
X43872Y-36518D01*
X43834Y-36509D01*
X43805Y-36509D01*
X43767Y-36518D01*
X43748Y-36527D01*
X43729Y-36544D01*
X43720Y-36569D01*
X43720Y-36587D01*
X43729Y-36612D01*
X43739Y-36621D01*
X43920Y-36792D02*
X43920Y-36689D01*
X43920Y-36741D02*
X43720Y-36741D01*
X43748Y-36724D01*
X43767Y-36707D01*
X43777Y-36689D01*
X43920Y-36964D02*
X43920Y-36861D01*
X43920Y-36912D02*
X43720Y-36912D01*
X43748Y-36895D01*
X43767Y-36878D01*
X43777Y-36861D01*
X44570Y-36535D02*
X44570Y-36432D01*
X44570Y-36484D02*
X44370Y-36484D01*
X44398Y-36467D01*
X44417Y-36449D01*
X44427Y-36432D01*
X44370Y-36647D02*
X44370Y-36664D01*
X44379Y-36681D01*
X44389Y-36689D01*
X44408Y-36698D01*
X44446Y-36707D01*
X44493Y-36707D01*
X44531Y-36698D01*
X44550Y-36689D01*
X44560Y-36681D01*
X44570Y-36664D01*
X44570Y-36647D01*
X44560Y-36629D01*
X44550Y-36621D01*
X44531Y-36612D01*
X44493Y-36604D01*
X44446Y-36604D01*
X44408Y-36612D01*
X44389Y-36621D01*
X44379Y-36629D01*
X44370Y-36647D01*
X44370Y-36818D02*
X44370Y-36835D01*
X44379Y-36852D01*
X44389Y-36861D01*
X44408Y-36869D01*
X44446Y-36878D01*
X44493Y-36878D01*
X44531Y-36869D01*
X44550Y-36861D01*
X44560Y-36852D01*
X44570Y-36835D01*
X44570Y-36818D01*
X44560Y-36801D01*
X44550Y-36792D01*
X44531Y-36784D01*
X44493Y-36775D01*
X44446Y-36775D01*
X44408Y-36784D01*
X44389Y-36792D01*
X44379Y-36801D01*
X44370Y-36818D01*
X44436Y-36955D02*
X44570Y-36955D01*
X44455Y-36955D02*
X44446Y-36964D01*
X44436Y-36981D01*
X44436Y-37007D01*
X44446Y-37024D01*
X44465Y-37032D01*
X44570Y-37032D01*
G54D14*
X43443Y-43710D02*
X43349Y-43644D01*
X43443Y-43597D02*
X43246Y-43597D01*
X43246Y-43672D01*
X43256Y-43691D01*
X43265Y-43700D01*
X43284Y-43710D01*
X43312Y-43710D01*
X43331Y-43700D01*
X43340Y-43691D01*
X43349Y-43672D01*
X43349Y-43597D01*
X43265Y-43785D02*
X43256Y-43794D01*
X43246Y-43813D01*
X43246Y-43860D01*
X43256Y-43879D01*
X43265Y-43888D01*
X43284Y-43897D01*
X43302Y-43897D01*
X43331Y-43888D01*
X43443Y-43776D01*
X43443Y-43897D01*
X43246Y-44019D02*
X43246Y-44038D01*
X43256Y-44057D01*
X43265Y-44066D01*
X43284Y-44076D01*
X43321Y-44085D01*
X43368Y-44085D01*
X43406Y-44076D01*
X43424Y-44066D01*
X43434Y-44057D01*
X43443Y-44038D01*
X43443Y-44019D01*
X43434Y-44001D01*
X43424Y-43991D01*
X43406Y-43982D01*
X43368Y-43973D01*
X43321Y-43973D01*
X43284Y-43982D01*
X43265Y-43991D01*
X43256Y-44001D01*
X43246Y-44019D01*
X42971Y-43686D02*
X42971Y-43649D01*
X42981Y-43630D01*
X42990Y-43621D01*
X43018Y-43602D01*
X43056Y-43593D01*
X43131Y-43593D01*
X43149Y-43602D01*
X43159Y-43611D01*
X43168Y-43630D01*
X43168Y-43668D01*
X43159Y-43686D01*
X43149Y-43696D01*
X43131Y-43705D01*
X43084Y-43705D01*
X43065Y-43696D01*
X43056Y-43686D01*
X43046Y-43668D01*
X43046Y-43630D01*
X43056Y-43611D01*
X43065Y-43602D01*
X43084Y-43593D01*
X43056Y-43818D02*
X43046Y-43799D01*
X43037Y-43790D01*
X43018Y-43780D01*
X43009Y-43780D01*
X42990Y-43790D01*
X42981Y-43799D01*
X42971Y-43818D01*
X42971Y-43855D01*
X42981Y-43874D01*
X42990Y-43883D01*
X43009Y-43893D01*
X43018Y-43893D01*
X43037Y-43883D01*
X43046Y-43874D01*
X43056Y-43855D01*
X43056Y-43818D01*
X43065Y-43799D01*
X43074Y-43790D01*
X43093Y-43780D01*
X43131Y-43780D01*
X43149Y-43790D01*
X43159Y-43799D01*
X43168Y-43818D01*
X43168Y-43855D01*
X43159Y-43874D01*
X43149Y-43883D01*
X43131Y-43893D01*
X43093Y-43893D01*
X43074Y-43883D01*
X43065Y-43874D01*
X43056Y-43855D01*
X42971Y-44015D02*
X42971Y-44034D01*
X42981Y-44052D01*
X42990Y-44062D01*
X43009Y-44071D01*
X43046Y-44080D01*
X43093Y-44080D01*
X43131Y-44071D01*
X43149Y-44062D01*
X43159Y-44052D01*
X43168Y-44034D01*
X43168Y-44015D01*
X43159Y-43996D01*
X43149Y-43987D01*
X43131Y-43977D01*
X43093Y-43968D01*
X43046Y-43968D01*
X43009Y-43977D01*
X42990Y-43987D01*
X42981Y-43996D01*
X42971Y-44015D01*
X39043Y-42910D02*
X38949Y-42844D01*
X39043Y-42797D02*
X38846Y-42797D01*
X38846Y-42872D01*
X38856Y-42891D01*
X38865Y-42900D01*
X38884Y-42910D01*
X38912Y-42910D01*
X38931Y-42900D01*
X38940Y-42891D01*
X38949Y-42872D01*
X38949Y-42797D01*
X38865Y-42985D02*
X38856Y-42994D01*
X38846Y-43013D01*
X38846Y-43060D01*
X38856Y-43079D01*
X38865Y-43088D01*
X38884Y-43097D01*
X38902Y-43097D01*
X38931Y-43088D01*
X39043Y-42976D01*
X39043Y-43097D01*
X39043Y-43285D02*
X39043Y-43173D01*
X39043Y-43229D02*
X38846Y-43229D01*
X38874Y-43210D01*
X38893Y-43191D01*
X38902Y-43173D01*
X38571Y-42886D02*
X38571Y-42849D01*
X38581Y-42830D01*
X38590Y-42821D01*
X38618Y-42802D01*
X38656Y-42793D01*
X38731Y-42793D01*
X38749Y-42802D01*
X38759Y-42811D01*
X38768Y-42830D01*
X38768Y-42868D01*
X38759Y-42886D01*
X38749Y-42896D01*
X38731Y-42905D01*
X38684Y-42905D01*
X38665Y-42896D01*
X38656Y-42886D01*
X38646Y-42868D01*
X38646Y-42830D01*
X38656Y-42811D01*
X38665Y-42802D01*
X38684Y-42793D01*
X38656Y-43018D02*
X38646Y-42999D01*
X38637Y-42990D01*
X38618Y-42980D01*
X38609Y-42980D01*
X38590Y-42990D01*
X38581Y-42999D01*
X38571Y-43018D01*
X38571Y-43055D01*
X38581Y-43074D01*
X38590Y-43083D01*
X38609Y-43093D01*
X38618Y-43093D01*
X38637Y-43083D01*
X38646Y-43074D01*
X38656Y-43055D01*
X38656Y-43018D01*
X38665Y-42999D01*
X38674Y-42990D01*
X38693Y-42980D01*
X38731Y-42980D01*
X38749Y-42990D01*
X38759Y-42999D01*
X38768Y-43018D01*
X38768Y-43055D01*
X38759Y-43074D01*
X38749Y-43083D01*
X38731Y-43093D01*
X38693Y-43093D01*
X38674Y-43083D01*
X38665Y-43074D01*
X38656Y-43055D01*
X38571Y-43215D02*
X38571Y-43234D01*
X38581Y-43252D01*
X38590Y-43262D01*
X38609Y-43271D01*
X38646Y-43280D01*
X38693Y-43280D01*
X38731Y-43271D01*
X38749Y-43262D01*
X38759Y-43252D01*
X38768Y-43234D01*
X38768Y-43215D01*
X38759Y-43196D01*
X38749Y-43187D01*
X38731Y-43177D01*
X38693Y-43168D01*
X38646Y-43168D01*
X38609Y-43177D01*
X38590Y-43187D01*
X38581Y-43196D01*
X38571Y-43215D01*
X40256Y-44051D02*
X40321Y-43957D01*
X40368Y-44051D02*
X40368Y-43854D01*
X40293Y-43854D01*
X40274Y-43863D01*
X40265Y-43872D01*
X40256Y-43891D01*
X40256Y-43919D01*
X40265Y-43938D01*
X40274Y-43947D01*
X40293Y-43957D01*
X40368Y-43957D01*
X40181Y-43872D02*
X40171Y-43863D01*
X40152Y-43854D01*
X40106Y-43854D01*
X40087Y-43863D01*
X40077Y-43872D01*
X40068Y-43891D01*
X40068Y-43910D01*
X40077Y-43938D01*
X40190Y-44051D01*
X40068Y-44051D01*
X40002Y-43854D02*
X39880Y-43854D01*
X39946Y-43929D01*
X39918Y-43929D01*
X39899Y-43938D01*
X39890Y-43947D01*
X39880Y-43966D01*
X39880Y-44013D01*
X39890Y-44032D01*
X39899Y-44041D01*
X39918Y-44051D01*
X39974Y-44051D01*
X39993Y-44041D01*
X40002Y-44032D01*
X40279Y-44129D02*
X40317Y-44129D01*
X40335Y-44138D01*
X40345Y-44147D01*
X40364Y-44176D01*
X40373Y-44213D01*
X40373Y-44288D01*
X40364Y-44307D01*
X40354Y-44316D01*
X40335Y-44326D01*
X40298Y-44326D01*
X40279Y-44316D01*
X40270Y-44307D01*
X40260Y-44288D01*
X40260Y-44241D01*
X40270Y-44222D01*
X40279Y-44213D01*
X40298Y-44204D01*
X40335Y-44204D01*
X40354Y-44213D01*
X40364Y-44222D01*
X40373Y-44241D01*
X40148Y-44213D02*
X40167Y-44204D01*
X40176Y-44194D01*
X40185Y-44176D01*
X40185Y-44166D01*
X40176Y-44147D01*
X40167Y-44138D01*
X40148Y-44129D01*
X40110Y-44129D01*
X40092Y-44138D01*
X40082Y-44147D01*
X40073Y-44166D01*
X40073Y-44176D01*
X40082Y-44194D01*
X40092Y-44204D01*
X40110Y-44213D01*
X40148Y-44213D01*
X40167Y-44222D01*
X40176Y-44232D01*
X40185Y-44251D01*
X40185Y-44288D01*
X40176Y-44307D01*
X40167Y-44316D01*
X40148Y-44326D01*
X40110Y-44326D01*
X40092Y-44316D01*
X40082Y-44307D01*
X40073Y-44288D01*
X40073Y-44251D01*
X40082Y-44232D01*
X40092Y-44222D01*
X40110Y-44213D01*
X39951Y-44129D02*
X39932Y-44129D01*
X39913Y-44138D01*
X39904Y-44147D01*
X39895Y-44166D01*
X39885Y-44204D01*
X39885Y-44251D01*
X39895Y-44288D01*
X39904Y-44307D01*
X39913Y-44316D01*
X39932Y-44326D01*
X39951Y-44326D01*
X39970Y-44316D01*
X39979Y-44307D01*
X39988Y-44288D01*
X39998Y-44251D01*
X39998Y-44204D01*
X39988Y-44166D01*
X39979Y-44147D01*
X39970Y-44138D01*
X39951Y-44129D01*
G54D13*
X42100Y-42757D02*
X42110Y-42748D01*
X42120Y-42722D01*
X42120Y-42705D01*
X42110Y-42679D01*
X42091Y-42662D01*
X42072Y-42654D01*
X42034Y-42645D01*
X42005Y-42645D01*
X41967Y-42654D01*
X41948Y-42662D01*
X41929Y-42679D01*
X41920Y-42705D01*
X41920Y-42722D01*
X41929Y-42748D01*
X41939Y-42757D01*
X41939Y-42825D02*
X41929Y-42834D01*
X41920Y-42851D01*
X41920Y-42894D01*
X41929Y-42911D01*
X41939Y-42919D01*
X41958Y-42928D01*
X41977Y-42928D01*
X42005Y-42919D01*
X42120Y-42817D01*
X42120Y-42928D01*
X41470Y-42585D02*
X41470Y-42482D01*
X41470Y-42534D02*
X41270Y-42534D01*
X41298Y-42517D01*
X41317Y-42499D01*
X41327Y-42482D01*
X41270Y-42697D02*
X41270Y-42714D01*
X41279Y-42731D01*
X41289Y-42739D01*
X41308Y-42748D01*
X41346Y-42757D01*
X41393Y-42757D01*
X41431Y-42748D01*
X41450Y-42739D01*
X41460Y-42731D01*
X41470Y-42714D01*
X41470Y-42697D01*
X41460Y-42679D01*
X41450Y-42671D01*
X41431Y-42662D01*
X41393Y-42654D01*
X41346Y-42654D01*
X41308Y-42662D01*
X41289Y-42671D01*
X41279Y-42679D01*
X41270Y-42697D01*
X41270Y-42868D02*
X41270Y-42885D01*
X41279Y-42902D01*
X41289Y-42911D01*
X41308Y-42919D01*
X41346Y-42928D01*
X41393Y-42928D01*
X41431Y-42919D01*
X41450Y-42911D01*
X41460Y-42902D01*
X41470Y-42885D01*
X41470Y-42868D01*
X41460Y-42851D01*
X41450Y-42842D01*
X41431Y-42834D01*
X41393Y-42825D01*
X41346Y-42825D01*
X41308Y-42834D01*
X41289Y-42842D01*
X41279Y-42851D01*
X41270Y-42868D01*
X41336Y-43005D02*
X41470Y-43005D01*
X41355Y-43005D02*
X41346Y-43014D01*
X41336Y-43031D01*
X41336Y-43057D01*
X41346Y-43074D01*
X41365Y-43082D01*
X41470Y-43082D01*
X40100Y-42757D02*
X40110Y-42748D01*
X40120Y-42722D01*
X40120Y-42705D01*
X40110Y-42679D01*
X40091Y-42662D01*
X40072Y-42654D01*
X40034Y-42645D01*
X40005Y-42645D01*
X39967Y-42654D01*
X39948Y-42662D01*
X39929Y-42679D01*
X39920Y-42705D01*
X39920Y-42722D01*
X39929Y-42748D01*
X39939Y-42757D01*
X39920Y-42919D02*
X39920Y-42834D01*
X40015Y-42825D01*
X40005Y-42834D01*
X39996Y-42851D01*
X39996Y-42894D01*
X40005Y-42911D01*
X40015Y-42919D01*
X40034Y-42928D01*
X40081Y-42928D01*
X40100Y-42919D01*
X40110Y-42911D01*
X40120Y-42894D01*
X40120Y-42851D01*
X40110Y-42834D01*
X40100Y-42825D01*
X39470Y-42585D02*
X39470Y-42482D01*
X39470Y-42534D02*
X39270Y-42534D01*
X39298Y-42517D01*
X39317Y-42499D01*
X39327Y-42482D01*
X39270Y-42697D02*
X39270Y-42714D01*
X39279Y-42731D01*
X39289Y-42739D01*
X39308Y-42748D01*
X39346Y-42757D01*
X39393Y-42757D01*
X39431Y-42748D01*
X39450Y-42739D01*
X39460Y-42731D01*
X39470Y-42714D01*
X39470Y-42697D01*
X39460Y-42679D01*
X39450Y-42671D01*
X39431Y-42662D01*
X39393Y-42654D01*
X39346Y-42654D01*
X39308Y-42662D01*
X39289Y-42671D01*
X39279Y-42679D01*
X39270Y-42697D01*
X39270Y-42868D02*
X39270Y-42885D01*
X39279Y-42902D01*
X39289Y-42911D01*
X39308Y-42919D01*
X39346Y-42928D01*
X39393Y-42928D01*
X39431Y-42919D01*
X39450Y-42911D01*
X39460Y-42902D01*
X39470Y-42885D01*
X39470Y-42868D01*
X39460Y-42851D01*
X39450Y-42842D01*
X39431Y-42834D01*
X39393Y-42825D01*
X39346Y-42825D01*
X39308Y-42834D01*
X39289Y-42842D01*
X39279Y-42851D01*
X39270Y-42868D01*
X39336Y-43005D02*
X39470Y-43005D01*
X39355Y-43005D02*
X39346Y-43014D01*
X39336Y-43031D01*
X39336Y-43057D01*
X39346Y-43074D01*
X39365Y-43082D01*
X39470Y-43082D01*
X41900Y-36621D02*
X41910Y-36612D01*
X41920Y-36587D01*
X41920Y-36569D01*
X41910Y-36544D01*
X41891Y-36527D01*
X41872Y-36518D01*
X41834Y-36509D01*
X41805Y-36509D01*
X41767Y-36518D01*
X41748Y-36527D01*
X41729Y-36544D01*
X41720Y-36569D01*
X41720Y-36587D01*
X41729Y-36612D01*
X41739Y-36621D01*
X41739Y-36689D02*
X41729Y-36698D01*
X41720Y-36715D01*
X41720Y-36758D01*
X41729Y-36775D01*
X41739Y-36784D01*
X41758Y-36792D01*
X41777Y-36792D01*
X41805Y-36784D01*
X41920Y-36681D01*
X41920Y-36792D01*
X41720Y-36955D02*
X41720Y-36869D01*
X41815Y-36861D01*
X41805Y-36869D01*
X41796Y-36887D01*
X41796Y-36929D01*
X41805Y-36947D01*
X41815Y-36955D01*
X41834Y-36964D01*
X41881Y-36964D01*
X41900Y-36955D01*
X41910Y-36947D01*
X41920Y-36929D01*
X41920Y-36887D01*
X41910Y-36869D01*
X41900Y-36861D01*
X42570Y-36535D02*
X42570Y-36432D01*
X42570Y-36484D02*
X42370Y-36484D01*
X42398Y-36467D01*
X42417Y-36449D01*
X42427Y-36432D01*
X42370Y-36647D02*
X42370Y-36664D01*
X42379Y-36681D01*
X42389Y-36689D01*
X42408Y-36698D01*
X42446Y-36707D01*
X42493Y-36707D01*
X42531Y-36698D01*
X42550Y-36689D01*
X42560Y-36681D01*
X42570Y-36664D01*
X42570Y-36647D01*
X42560Y-36629D01*
X42550Y-36621D01*
X42531Y-36612D01*
X42493Y-36604D01*
X42446Y-36604D01*
X42408Y-36612D01*
X42389Y-36621D01*
X42379Y-36629D01*
X42370Y-36647D01*
X42370Y-36818D02*
X42370Y-36835D01*
X42379Y-36852D01*
X42389Y-36861D01*
X42408Y-36869D01*
X42446Y-36878D01*
X42493Y-36878D01*
X42531Y-36869D01*
X42550Y-36861D01*
X42560Y-36852D01*
X42570Y-36835D01*
X42570Y-36818D01*
X42560Y-36801D01*
X42550Y-36792D01*
X42531Y-36784D01*
X42493Y-36775D01*
X42446Y-36775D01*
X42408Y-36784D01*
X42389Y-36792D01*
X42379Y-36801D01*
X42370Y-36818D01*
X42436Y-36955D02*
X42570Y-36955D01*
X42455Y-36955D02*
X42446Y-36964D01*
X42436Y-36981D01*
X42436Y-37007D01*
X42446Y-37024D01*
X42465Y-37032D01*
X42570Y-37032D01*
M02*
