M48
;DRILL file {kicad (2014-05-13 BZR 4864)-product} date Mi 14 Mai 2014 11:13:01 CEST
;FORMAT={2:4/ absolute / inch / keep zeros}
FMAT,2
INCH,TZ
T1C0.013
T2C0.025
T3C0.032
T4C0.039
T5C0.039
T6C0.039
T7C0.060
T8C0.091
T9C0.118
%
G90
G05
M72
T1
X024780Y-049587
X024875Y-022675
X024880Y-021887
X025880Y-051037
X026200Y-034550
X029480Y-021087
X029780Y-021087
X030130Y-021087
X030430Y-021087
X030730Y-021087
X031030Y-021087
X031330Y-021087
X032780Y-036137
X033030Y-031187
X033030Y-032737
X033330Y-031137
X033330Y-032737
X033430Y-036237
X033630Y-031137
X033630Y-032737
X033930Y-031137
X033930Y-032737
X034930Y-037037
X034930Y-038037
X034930Y-039037
X034930Y-040037
X035080Y-022137
X035150Y-044200
X035500Y-044300
X036880Y-048437
X037280Y-048037
X037680Y-047737
X038030Y-047437
X038330Y-038837
X038330Y-048437
X038380Y-040787
X038680Y-048037
X039030Y-047737
X039330Y-047437
X039380Y-039037
X039380Y-040687
X039380Y-043337
X039580Y-036287
X039580Y-037637
X039980Y-037237
X039980Y-042387
X040330Y-042337
X040780Y-038187
X040980Y-044287
X041280Y-035187
X041325Y-021775
X041530Y-035437
X041625Y-021775
X041730Y-036287
X041830Y-039287
X041925Y-021775
X041930Y-037137
X041930Y-043237
X042180Y-042337
X042225Y-021775
X042525Y-021775
X042780Y-033687
X042825Y-021775
X042925Y-041025
X043080Y-033937
X043730Y-036287
X043730Y-044237
X043775Y-041025
X043830Y-042287
X043880Y-037237
X043930Y-047887
X043930Y-048637
X044180Y-043237
X044280Y-017587
X044280Y-039687
X044330Y-038587
X044380Y-040887
X044430Y-037437
X044630Y-036737
X044750Y-027450
X044780Y-037087
X044980Y-035587
X044980Y-035887
X045080Y-035237
X045280Y-043887
X045300Y-027650
X045580Y-018887
X045930Y-031637
X046030Y-045137
X046180Y-032487
X046180Y-043987
X046300Y-018150
X046330Y-047587
X046830Y-048037
X047400Y-019250
X047475Y-043387
X047480Y-030587
X047480Y-036037
X047775Y-043387
X048125Y-043387
X048180Y-051187
X048430Y-029737
X049030Y-032587
X049150Y-024700
X050030Y-029837
X050325Y-053375
X050350Y-013750
X050600Y-013750
X050625Y-053375
X050850Y-013750
X050925Y-053375
X051180Y-032037
X051430Y-029937
X053230Y-046987
X053630Y-046587
X054100Y-011100
X054325Y-042275
X054775Y-042225
X056950Y-013250
X057850Y-009850
X057950Y-013400
X057950Y-014850
T2
X022130Y-051037
X022130Y-054037
X022180Y-046237
X022180Y-049237
X023130Y-051037
X023130Y-054037
X023180Y-046237
X023180Y-049237
X023280Y-041837
X023280Y-042837
X023280Y-043837
X024130Y-051037
X024130Y-054037
X024180Y-046237
X024180Y-049237
X026280Y-041837
X026280Y-042837
X026280Y-043837
X057280Y-018937
X057280Y-021937
X057330Y-040937
X057330Y-043937
X058280Y-018937
X058280Y-021937
X058330Y-040937
X058330Y-043937
X059280Y-018937
X059280Y-021937
X059330Y-040937
X059330Y-043937
T3
X023043Y-027737
X023043Y-028737
X023830Y-027737
X023830Y-028737
X026430Y-045637
X026430Y-050637
X027430Y-045637
X027430Y-050637
X028430Y-045637
X028430Y-050637
X029430Y-045637
X029430Y-050637
X030430Y-045637
X030430Y-050637
X031430Y-045637
X031430Y-050637
X032430Y-045637
X032430Y-050637
X033430Y-045637
X033430Y-050637
X034689Y-045630
X034689Y-050630
X035689Y-045630
X035689Y-050630
X036689Y-045630
X036689Y-050630
X037689Y-045630
X037689Y-050630
X038689Y-045630
X038689Y-050630
X039689Y-045630
X039689Y-050630
X040689Y-045630
X040689Y-050630
X041689Y-045630
X041689Y-050630
X042957Y-045630
X042957Y-050630
X043809Y-025222
X043957Y-045630
X043957Y-050630
X044809Y-025222
X044957Y-045630
X044957Y-050630
X045809Y-025222
X045957Y-045630
X045957Y-050630
X046809Y-025222
X046957Y-045630
X046957Y-050630
X047580Y-017037
X047580Y-022037
X047809Y-025222
X047957Y-045630
X047957Y-050630
X048580Y-017037
X048580Y-022037
X048957Y-045630
X048957Y-050630
X049580Y-017037
X049580Y-022037
X049957Y-045630
X049957Y-050630
X050580Y-017037
X050580Y-022037
X051224Y-045630
X051224Y-050630
X051580Y-017037
X051580Y-022037
X052224Y-045630
X052224Y-050630
X052580Y-017037
X052580Y-022037
X053224Y-045630
X053224Y-050630
X053580Y-017037
X053580Y-022037
X054224Y-045630
X054224Y-050630
X054580Y-017037
X054580Y-022037
X055224Y-045630
X055224Y-050630
X056224Y-045630
X056224Y-050630
X057224Y-045630
X057224Y-050630
X058224Y-045630
X058224Y-050630
T4
X021230Y-043637
X021230Y-044637
X031030Y-024937
X031030Y-025937
X031030Y-026937
X031030Y-027937
X031030Y-028937
X032030Y-024937
X032030Y-025937
X032030Y-026937
X032030Y-027937
X032030Y-028937
X036386Y-030602
X036386Y-031602
X036430Y-026337
X036430Y-027337
X037386Y-030602
X037386Y-031602
X037430Y-026337
X037430Y-027337
X038386Y-030602
X038386Y-031602
X038430Y-026337
X038430Y-027337
X039386Y-030602
X039386Y-031602
X039430Y-026337
X039430Y-027337
X040386Y-030602
X040386Y-031602
X040430Y-026337
X040430Y-027337
X049725Y-034475
X049725Y-035475
X053980Y-032487
X053980Y-033487
X053980Y-034487
X053980Y-035487
X053980Y-036487
X053980Y-037487
X053980Y-038487
X053980Y-039487
X054980Y-032487
X054980Y-033487
X054980Y-034487
X054980Y-035487
X054980Y-036487
X054980Y-037487
X054980Y-038487
X054980Y-039487
X058350Y-031250
X058350Y-032250
T5
X021880Y-036987
X021880Y-037987
X021880Y-038987
X021884Y-033787
X021884Y-034787
X021884Y-035787
X025030Y-033787
X025030Y-034787
X025030Y-035787
X025030Y-036987
X025030Y-037987
X025030Y-038987
X026436Y-053346
X027436Y-053346
X028436Y-053346
X028580Y-042137
X028580Y-043137
X028580Y-044137
X028662Y-032965
X028662Y-033965
X028662Y-035130
X028662Y-036130
X028662Y-037295
X028662Y-038295
X028662Y-039461
X028662Y-040461
X029436Y-053346
X031980Y-042137
X031980Y-043137
X031980Y-044137
X034850Y-053445
X035850Y-053445
X036850Y-053445
X037850Y-053445
X043512Y-053445
X043920Y-029348
X043920Y-030348
X043920Y-031348
X043920Y-032348
X044512Y-053445
X045512Y-053445
X046512Y-053445
X048930Y-028937
X049145Y-023853
X049630Y-036787
X049630Y-037787
X049630Y-038787
X049630Y-039787
X049930Y-028937
X050130Y-025821
X051114Y-023853
X051730Y-028937
X051895Y-052753
X051895Y-054721
X052095Y-023853
X052730Y-028937
X053080Y-025821
X053480Y-014787
X053864Y-053737
X054064Y-023853
X054480Y-014787
X054480Y-028937
X055080Y-053487
X055245Y-023853
X055480Y-014787
X055480Y-028937
X056080Y-053487
X056230Y-025821
X056480Y-014787
X057080Y-053487
X057214Y-023853
X057345Y-028687
X057880Y-033787
X057880Y-034787
X058080Y-053487
X059314Y-027703
X059314Y-029671
T6
X020880Y-014911
X021880Y-014911
X022880Y-014911
X026195Y-014911
X027195Y-014911
X028195Y-014911
X031204Y-014911
X032204Y-014911
X033204Y-014911
X036715Y-014911
X037715Y-014911
X038715Y-014911
T7
X020880Y-010974
X022880Y-010974
X026195Y-010974
X028195Y-010974
X031400Y-010974
X033400Y-010974
X036715Y-010974
X038715Y-010974
X042047Y-011024
X044047Y-011024
X046047Y-011024
X048047Y-011024
X050047Y-011024
X052047Y-011024
T8
X021980Y-025875
T9
X020866Y-022441
X020866Y-052362
X058661Y-016535
X058661Y-048819
T0
M30
