%FSLAX34Y34*%
G04 Gerber Fmt 3.4, Leading zero omitted, Abs format*
G04 (created by PCBNEW (2014-05-13 BZR 4864)-product) date Mi 14 Mai 2014 11:17:40 CEST*
%MOIN*%
G01*
G70*
G90*
G04 APERTURE LIST*
%ADD10C,0.003937*%
%ADD11R,0.025000X0.045000*%
%ADD12R,0.055000X0.055000*%
%ADD13C,0.055000*%
%ADD14R,0.045000X0.025000*%
%ADD15R,0.063000X0.102400*%
%ADD16R,0.141700X0.063000*%
%ADD17R,0.031400X0.031400*%
%ADD18R,0.040000X0.010000*%
%ADD19R,0.010000X0.040000*%
%ADD20C,0.060000*%
%ADD21C,0.106300*%
%ADD22C,0.059300*%
%ADD23O,0.118700X0.059300*%
%ADD24R,0.100000X0.100000*%
%ADD25C,0.100000*%
%ADD26O,0.066900X0.137800*%
%ADD27R,0.035000X0.055000*%
%ADD28R,0.055000X0.035000*%
%ADD29C,0.059055*%
%ADD30R,0.023600X0.055100*%
%ADD31R,0.045000X0.020000*%
%ADD32R,0.023622X0.062992*%
%ADD33R,0.157500X0.094500*%
%ADD34C,0.070000*%
%ADD35R,0.059055X0.059055*%
%ADD36R,0.055000X0.059055*%
%ADD37R,0.039400X0.023600*%
%ADD38R,0.059055X0.055000*%
%ADD39C,0.150000*%
%ADD40R,0.150000X0.150000*%
%ADD41R,0.020000X0.051181*%
%ADD42C,0.020000*%
G04 APERTURE END LIST*
G54D10*
G54D11*
X30675Y-38975D03*
X31275Y-38975D03*
X27200Y-37025D03*
X26600Y-37025D03*
X27375Y-35225D03*
X26775Y-35225D03*
G54D12*
X43809Y-25222D03*
G54D13*
X44809Y-25222D03*
X45809Y-25222D03*
X46809Y-25222D03*
X47809Y-25222D03*
G54D11*
X46229Y-40437D03*
X45629Y-40437D03*
G54D14*
X46329Y-38837D03*
X46329Y-38237D03*
G54D11*
X22150Y-31900D03*
X22750Y-31900D03*
G54D15*
X58029Y-37628D03*
X58029Y-39046D03*
G54D11*
X51579Y-31987D03*
X52179Y-31987D03*
X50179Y-31987D03*
X50779Y-31987D03*
X48679Y-31987D03*
X49279Y-31987D03*
G54D16*
X36962Y-43437D03*
X34796Y-43437D03*
X54662Y-43387D03*
X52496Y-43387D03*
X33121Y-53444D03*
X30955Y-53444D03*
X49496Y-14687D03*
X51662Y-14687D03*
G54D17*
X47329Y-38032D03*
X47329Y-37442D03*
X37029Y-22782D03*
X37029Y-22192D03*
X46529Y-13592D03*
X46529Y-14182D03*
X39429Y-22782D03*
X39429Y-22192D03*
X42784Y-43937D03*
X43374Y-43937D03*
X38829Y-42842D03*
X38829Y-43432D03*
X44720Y-34664D03*
X44720Y-34074D03*
X40484Y-44637D03*
X41074Y-44637D03*
X38179Y-42842D03*
X38179Y-43432D03*
X31219Y-20323D03*
X31219Y-19733D03*
X20699Y-20323D03*
X20699Y-19733D03*
X27392Y-20323D03*
X27392Y-19733D03*
X37912Y-20323D03*
X37912Y-19733D03*
X31125Y-39805D03*
X31125Y-40395D03*
X31311Y-37600D03*
X31311Y-38190D03*
X31311Y-35434D03*
X31311Y-36024D03*
X31329Y-33242D03*
X31329Y-33832D03*
G54D18*
X44979Y-37403D03*
X44979Y-42123D03*
X44979Y-41923D03*
X44979Y-41733D03*
X44979Y-41533D03*
X44979Y-41333D03*
X44979Y-41143D03*
X44979Y-40943D03*
X44979Y-40743D03*
X44979Y-40553D03*
X44979Y-40353D03*
X44979Y-40153D03*
X44979Y-39953D03*
X44979Y-39763D03*
X44979Y-39563D03*
X44979Y-39363D03*
X44979Y-39173D03*
X44979Y-38973D03*
X44979Y-38773D03*
X44979Y-38583D03*
X44979Y-38383D03*
X44979Y-38183D03*
X44979Y-37993D03*
X44979Y-37793D03*
X44979Y-37593D03*
G54D19*
X44289Y-42813D03*
X39569Y-42813D03*
X39769Y-42813D03*
X39959Y-42813D03*
X40159Y-42813D03*
X40359Y-42813D03*
X40549Y-42813D03*
X40749Y-42813D03*
X40949Y-42813D03*
X41139Y-42813D03*
X41339Y-42813D03*
X41539Y-42813D03*
X41739Y-42813D03*
X41929Y-42813D03*
X42129Y-42813D03*
X42329Y-42813D03*
X42519Y-42813D03*
X42719Y-42813D03*
X42919Y-42813D03*
X43109Y-42813D03*
X43309Y-42813D03*
X43509Y-42813D03*
X43699Y-42813D03*
X43899Y-42813D03*
X44099Y-42813D03*
X44289Y-36713D03*
X44089Y-36713D03*
X43899Y-36713D03*
X43699Y-36713D03*
X43499Y-36713D03*
X43309Y-36713D03*
X43109Y-36713D03*
X42909Y-36713D03*
X42719Y-36713D03*
X42519Y-36713D03*
X42319Y-36713D03*
X42119Y-36713D03*
X41929Y-36713D03*
X41729Y-36713D03*
X41529Y-36713D03*
X41339Y-36713D03*
X41139Y-36713D03*
X40939Y-36713D03*
X40749Y-36713D03*
X40549Y-36713D03*
X40349Y-36713D03*
X40159Y-36713D03*
X39959Y-36713D03*
X39759Y-36713D03*
X39569Y-36713D03*
G54D18*
X38879Y-37403D03*
X38879Y-37603D03*
X38879Y-37793D03*
X38879Y-37993D03*
X38879Y-38193D03*
X38879Y-38383D03*
X38879Y-38583D03*
X38879Y-38783D03*
X38879Y-38973D03*
X38879Y-39173D03*
X38879Y-39373D03*
X38879Y-39573D03*
X38879Y-39763D03*
X38879Y-39963D03*
X38879Y-40163D03*
X38879Y-40353D03*
X38879Y-40553D03*
X38879Y-40753D03*
X38879Y-40943D03*
X38879Y-41143D03*
X38879Y-41343D03*
X38879Y-41533D03*
X38879Y-41733D03*
X38879Y-41933D03*
X38879Y-42123D03*
G54D20*
X23829Y-28737D03*
X23829Y-27737D03*
X23042Y-27737D03*
X23042Y-28737D03*
G54D21*
X21979Y-30599D03*
X21979Y-25875D03*
G54D22*
X40385Y-30602D03*
X40385Y-31602D03*
X39385Y-30602D03*
X39385Y-31602D03*
X38385Y-30602D03*
X38385Y-31602D03*
X37385Y-30602D03*
X37385Y-31602D03*
X36385Y-30602D03*
X36385Y-31602D03*
X31029Y-24937D03*
X32029Y-24937D03*
X31029Y-25937D03*
X32029Y-25937D03*
X31029Y-26937D03*
X32029Y-26937D03*
X31029Y-27937D03*
X32029Y-27937D03*
X31029Y-28937D03*
X32029Y-28937D03*
G54D23*
X21229Y-44637D03*
X21229Y-43637D03*
X58350Y-32250D03*
X58350Y-31250D03*
X49725Y-35475D03*
X49725Y-34475D03*
G54D22*
X54979Y-39487D03*
X53979Y-39487D03*
X54979Y-38487D03*
X53979Y-38487D03*
X54979Y-37487D03*
X53979Y-37487D03*
X54979Y-36487D03*
X53979Y-36487D03*
X54979Y-35487D03*
X53979Y-35487D03*
X54979Y-34487D03*
X53979Y-34487D03*
X54979Y-33487D03*
X53979Y-33487D03*
X54979Y-32487D03*
X53979Y-32487D03*
G54D24*
X33400Y-10973D03*
G54D25*
X31400Y-10973D03*
G54D24*
X22880Y-10973D03*
G54D25*
X20880Y-10973D03*
G54D24*
X38715Y-10973D03*
G54D25*
X36715Y-10973D03*
G54D24*
X28195Y-10973D03*
G54D25*
X26195Y-10973D03*
G54D26*
X32203Y-14910D03*
X33203Y-14910D03*
X31203Y-14910D03*
X21880Y-14910D03*
X22880Y-14910D03*
X20880Y-14910D03*
X27195Y-14910D03*
X28195Y-14910D03*
X26195Y-14910D03*
X37715Y-14910D03*
X38715Y-14910D03*
X36715Y-14910D03*
G54D27*
X47304Y-38637D03*
X48054Y-38637D03*
X47654Y-36787D03*
X46904Y-36787D03*
G54D28*
X38179Y-22112D03*
X38179Y-22862D03*
X47379Y-14212D03*
X47379Y-13462D03*
X40429Y-22112D03*
X40429Y-22862D03*
X25229Y-31812D03*
X25229Y-31062D03*
X24329Y-31812D03*
X24329Y-31062D03*
X47429Y-32112D03*
X47429Y-31362D03*
X46579Y-30662D03*
X46579Y-31412D03*
G54D27*
X48954Y-51837D03*
X48204Y-51837D03*
X55054Y-27437D03*
X55804Y-27437D03*
X52204Y-27437D03*
X52954Y-27437D03*
X49354Y-27437D03*
X50104Y-27437D03*
X52254Y-31287D03*
X51504Y-31287D03*
X50854Y-31287D03*
X50104Y-31287D03*
X49354Y-31287D03*
X48604Y-31287D03*
X51504Y-30487D03*
X52254Y-30487D03*
X50104Y-30487D03*
X50854Y-30487D03*
X48604Y-30487D03*
X49354Y-30487D03*
G54D28*
X45729Y-33662D03*
X45729Y-32912D03*
G54D27*
X37804Y-44287D03*
X38554Y-44287D03*
G54D28*
X32597Y-19653D03*
X32597Y-20403D03*
X22077Y-19653D03*
X22077Y-20403D03*
X28770Y-19653D03*
X28770Y-20403D03*
X39290Y-19653D03*
X39290Y-20403D03*
X32296Y-39685D03*
X32296Y-40435D03*
X32296Y-37520D03*
X32296Y-38270D03*
X32296Y-35354D03*
X32296Y-36104D03*
X32279Y-33162D03*
X32279Y-33912D03*
G54D29*
X53863Y-53737D03*
X51895Y-54721D03*
X51895Y-52752D03*
X56229Y-25821D03*
X55245Y-23852D03*
X57213Y-23852D03*
X50129Y-25821D03*
X49145Y-23852D03*
X51113Y-23852D03*
X53079Y-25821D03*
X52095Y-23852D03*
X54063Y-23852D03*
X57345Y-28687D03*
X59313Y-27702D03*
X59313Y-29671D03*
G54D30*
X49629Y-54987D03*
X49629Y-52887D03*
X49129Y-54987D03*
X48629Y-54987D03*
X48129Y-54987D03*
X49129Y-52887D03*
X48629Y-52887D03*
X48129Y-52887D03*
G54D31*
X26029Y-26537D03*
X26029Y-27037D03*
X26029Y-27537D03*
X26029Y-28037D03*
X26029Y-28537D03*
X26029Y-29037D03*
X26029Y-29537D03*
X26029Y-30037D03*
X28029Y-30037D03*
X28029Y-29537D03*
X28029Y-29037D03*
X28029Y-28537D03*
X28029Y-28037D03*
X28029Y-27537D03*
X28029Y-27037D03*
X28029Y-26537D03*
G54D13*
X40688Y-50629D03*
X34688Y-45629D03*
X35688Y-45629D03*
X36688Y-45629D03*
X37688Y-45629D03*
X38688Y-45629D03*
X39688Y-45629D03*
X40688Y-45629D03*
G54D12*
X41688Y-45629D03*
G54D13*
X41688Y-50629D03*
X39688Y-50629D03*
X38688Y-50629D03*
X37688Y-50629D03*
X36688Y-50629D03*
X35688Y-50629D03*
X34688Y-50629D03*
X57224Y-50629D03*
X51224Y-45629D03*
X52224Y-45629D03*
X53224Y-45629D03*
X54224Y-45629D03*
X55224Y-45629D03*
X56224Y-45629D03*
X57224Y-45629D03*
G54D12*
X58224Y-45629D03*
G54D13*
X58224Y-50629D03*
X56224Y-50629D03*
X55224Y-50629D03*
X54224Y-50629D03*
X53224Y-50629D03*
X52224Y-50629D03*
X51224Y-50629D03*
X32429Y-50637D03*
X26429Y-45637D03*
X27429Y-45637D03*
X28429Y-45637D03*
X29429Y-45637D03*
X30429Y-45637D03*
X31429Y-45637D03*
X32429Y-45637D03*
G54D12*
X33429Y-45637D03*
G54D13*
X33429Y-50637D03*
X31429Y-50637D03*
X30429Y-50637D03*
X29429Y-50637D03*
X28429Y-50637D03*
X27429Y-50637D03*
X26429Y-50637D03*
X48579Y-17037D03*
X54579Y-22037D03*
X53579Y-22037D03*
X52579Y-22037D03*
X51579Y-22037D03*
X50579Y-22037D03*
X49579Y-22037D03*
X48579Y-22037D03*
G54D12*
X47579Y-22037D03*
G54D13*
X47579Y-17037D03*
X49579Y-17037D03*
X50579Y-17037D03*
X51579Y-17037D03*
X52579Y-17037D03*
X53579Y-17037D03*
X54579Y-17037D03*
X48956Y-50629D03*
X42956Y-45629D03*
X43956Y-45629D03*
X44956Y-45629D03*
X45956Y-45629D03*
X46956Y-45629D03*
X47956Y-45629D03*
X48956Y-45629D03*
G54D12*
X49956Y-45629D03*
G54D13*
X49956Y-50629D03*
X47956Y-50629D03*
X46956Y-50629D03*
X45956Y-50629D03*
X44956Y-50629D03*
X43956Y-50629D03*
X42956Y-50629D03*
G54D32*
X34221Y-19359D03*
X34221Y-21485D03*
X34713Y-19359D03*
X35205Y-19359D03*
X35697Y-19359D03*
X34713Y-21485D03*
X35205Y-21485D03*
X35697Y-21485D03*
X23898Y-19162D03*
X23898Y-21288D03*
X24390Y-19162D03*
X24882Y-19162D03*
X25374Y-19162D03*
X24390Y-21288D03*
X24882Y-21288D03*
X25374Y-21288D03*
G54D31*
X35679Y-40537D03*
X35679Y-40037D03*
X35679Y-39537D03*
X35679Y-39037D03*
X35679Y-38537D03*
X35679Y-38037D03*
X35679Y-37537D03*
X35679Y-37037D03*
X33679Y-37037D03*
X33679Y-37537D03*
X33679Y-38037D03*
X33679Y-38537D03*
X33679Y-39037D03*
X33679Y-39537D03*
X33679Y-40037D03*
X33679Y-40537D03*
G54D28*
X21025Y-31750D03*
X21025Y-31000D03*
G54D27*
X24154Y-25237D03*
X23404Y-25237D03*
G54D28*
X46179Y-27662D03*
X46179Y-26912D03*
G54D27*
X44004Y-23487D03*
X44754Y-23487D03*
G54D28*
X46579Y-32862D03*
X46579Y-32112D03*
X46579Y-29262D03*
X46579Y-30012D03*
G54D33*
X42104Y-16037D03*
X45254Y-16037D03*
X42154Y-20487D03*
X45304Y-20487D03*
G54D14*
X52279Y-33487D03*
X52279Y-32887D03*
G54D16*
X41762Y-53537D03*
X39596Y-53537D03*
G54D22*
X40429Y-26337D03*
X40429Y-27337D03*
X39429Y-26337D03*
X39429Y-27337D03*
X38429Y-26337D03*
X38429Y-27337D03*
X37429Y-26337D03*
X37429Y-27337D03*
X36429Y-26337D03*
X36429Y-27337D03*
G54D34*
X24129Y-51037D03*
X23129Y-51037D03*
X22129Y-51037D03*
X22129Y-54037D03*
X23129Y-54037D03*
X24129Y-54037D03*
X59329Y-40937D03*
X58329Y-40937D03*
X57329Y-40937D03*
X57329Y-43937D03*
X58329Y-43937D03*
X59329Y-43937D03*
X23279Y-41837D03*
X23279Y-42837D03*
X23279Y-43837D03*
X26279Y-43837D03*
X26279Y-42837D03*
X26279Y-41837D03*
X57279Y-21937D03*
X58279Y-21937D03*
X59279Y-21937D03*
X59279Y-18937D03*
X58279Y-18937D03*
X57279Y-18937D03*
X24179Y-46237D03*
X23179Y-46237D03*
X22179Y-46237D03*
X22179Y-49237D03*
X23179Y-49237D03*
X24179Y-49237D03*
G54D35*
X25029Y-35787D03*
G54D29*
X25029Y-34787D03*
X25029Y-33787D03*
G54D35*
X21883Y-35787D03*
G54D29*
X21883Y-34787D03*
X21883Y-33787D03*
G54D35*
X25029Y-38987D03*
G54D29*
X25029Y-37987D03*
X25029Y-36987D03*
G54D35*
X21879Y-38987D03*
G54D29*
X21879Y-37987D03*
X21879Y-36987D03*
G54D35*
X28579Y-44137D03*
G54D29*
X28579Y-43137D03*
X28579Y-42137D03*
G54D35*
X31979Y-44137D03*
G54D29*
X31979Y-43137D03*
X31979Y-42137D03*
G54D36*
X49629Y-39787D03*
G54D29*
X49629Y-38787D03*
X49629Y-37787D03*
X49629Y-36787D03*
G54D36*
X43920Y-29348D03*
G54D29*
X43920Y-30348D03*
X43920Y-31348D03*
X43920Y-32348D03*
G54D35*
X28662Y-40460D03*
G54D29*
X28662Y-39460D03*
G54D35*
X28662Y-38295D03*
G54D29*
X28662Y-37295D03*
G54D35*
X28662Y-36129D03*
G54D29*
X28662Y-35129D03*
G54D35*
X28662Y-33964D03*
G54D29*
X28662Y-32964D03*
G54D37*
X22762Y-13237D03*
X21896Y-13237D03*
X33062Y-13287D03*
X32196Y-13287D03*
X28062Y-13237D03*
X27196Y-13237D03*
X38562Y-13287D03*
X37696Y-13287D03*
G54D38*
X34850Y-53444D03*
G54D29*
X35850Y-53444D03*
X36850Y-53444D03*
X37850Y-53444D03*
G54D38*
X55079Y-53487D03*
G54D29*
X56079Y-53487D03*
X57079Y-53487D03*
X58079Y-53487D03*
G54D38*
X26435Y-53346D03*
G54D29*
X27435Y-53346D03*
X28435Y-53346D03*
X29435Y-53346D03*
G54D38*
X56479Y-14787D03*
G54D29*
X55479Y-14787D03*
X54479Y-14787D03*
X53479Y-14787D03*
G54D38*
X43511Y-53444D03*
G54D29*
X44511Y-53444D03*
X45511Y-53444D03*
X46511Y-53444D03*
G54D14*
X36579Y-19937D03*
X36579Y-20537D03*
X26229Y-19787D03*
X26229Y-20387D03*
G54D39*
X50047Y-11023D03*
X48047Y-11023D03*
G54D40*
X52047Y-11023D03*
G54D39*
X46047Y-11023D03*
X44047Y-11023D03*
X42047Y-11023D03*
G54D35*
X54479Y-28937D03*
G54D29*
X55479Y-28937D03*
G54D35*
X51729Y-28937D03*
G54D29*
X52729Y-28937D03*
G54D35*
X48929Y-28937D03*
G54D29*
X49929Y-28937D03*
G54D35*
X57879Y-34787D03*
G54D29*
X57879Y-33787D03*
G54D28*
X53950Y-11925D03*
X53950Y-12675D03*
X58950Y-10025D03*
X58950Y-9275D03*
G54D41*
X58200Y-8959D03*
X57700Y-8959D03*
X57200Y-8959D03*
X56700Y-8959D03*
X56200Y-8959D03*
X55700Y-8959D03*
X55200Y-8959D03*
X54700Y-8959D03*
X54700Y-12700D03*
X55200Y-12700D03*
X55700Y-12700D03*
X56200Y-12700D03*
X56700Y-12700D03*
X57200Y-12700D03*
X57700Y-12700D03*
X58200Y-12700D03*
G54D14*
X58950Y-11200D03*
X58950Y-10600D03*
G54D11*
X27375Y-34550D03*
X26775Y-34550D03*
G54D42*
X35500Y-44300D03*
X35150Y-44200D03*
X50850Y-13750D03*
X50600Y-13750D03*
X50350Y-13750D03*
X33429Y-36237D03*
X32779Y-36137D03*
X31329Y-21087D03*
X31029Y-21087D03*
X30729Y-21087D03*
X30429Y-21087D03*
X30129Y-21087D03*
X29779Y-21087D03*
X29479Y-21087D03*
X54775Y-42225D03*
X54325Y-42275D03*
X50325Y-53375D03*
X50625Y-53375D03*
X50925Y-53375D03*
X48125Y-43387D03*
X47475Y-43387D03*
X47775Y-43387D03*
X44279Y-39687D03*
X42925Y-41025D03*
X41829Y-39287D03*
X24875Y-22675D03*
X24879Y-21887D03*
X41929Y-37137D03*
X43879Y-37237D03*
X39979Y-37237D03*
X38329Y-38837D03*
X39379Y-40687D03*
X39979Y-42387D03*
X44279Y-17587D03*
X45579Y-18887D03*
X35079Y-22137D03*
X40779Y-38187D03*
X46179Y-32487D03*
X49029Y-32587D03*
X51179Y-32037D03*
X47479Y-36037D03*
X48179Y-51187D03*
X34929Y-37037D03*
X34929Y-38037D03*
X34929Y-39037D03*
X34929Y-40037D03*
X26200Y-34550D03*
X41929Y-43237D03*
X43829Y-42287D03*
X43775Y-41025D03*
X42825Y-21775D03*
X42525Y-21775D03*
X42225Y-21775D03*
X41925Y-21775D03*
X41625Y-21775D03*
X41325Y-21775D03*
X44329Y-38587D03*
X54100Y-11100D03*
X40329Y-42337D03*
X24779Y-49587D03*
X41729Y-36287D03*
X43729Y-36287D03*
X39579Y-36287D03*
X39379Y-39037D03*
X42179Y-42337D03*
X44179Y-43237D03*
X38379Y-40787D03*
X44379Y-40887D03*
X47479Y-30587D03*
X48429Y-29737D03*
X50029Y-29837D03*
X51429Y-29937D03*
X45929Y-31637D03*
X45279Y-43887D03*
X53629Y-46587D03*
X53229Y-46987D03*
X39579Y-37637D03*
X43929Y-47887D03*
X43929Y-48637D03*
X57850Y-9850D03*
X56950Y-13250D03*
X25879Y-51037D03*
X49150Y-24700D03*
X47400Y-19250D03*
X46300Y-18150D03*
X43729Y-44237D03*
X39379Y-43337D03*
X40979Y-44287D03*
X46179Y-43987D03*
X46029Y-45137D03*
X46329Y-47587D03*
X46829Y-48037D03*
X41529Y-35437D03*
X43079Y-33937D03*
X41279Y-35187D03*
X42779Y-33687D03*
X45300Y-27650D03*
X44750Y-27450D03*
X33929Y-32737D03*
X33929Y-31137D03*
X33629Y-32737D03*
X33629Y-31137D03*
X33329Y-31137D03*
X33329Y-32737D03*
X33029Y-32737D03*
X33029Y-31187D03*
X38029Y-47437D03*
X39329Y-47437D03*
X44979Y-35887D03*
X44629Y-36737D03*
X44979Y-35587D03*
X44429Y-37437D03*
X45079Y-35237D03*
X44779Y-37087D03*
X39029Y-47737D03*
X37679Y-47737D03*
X37279Y-48037D03*
X38679Y-48037D03*
X36879Y-48437D03*
X38329Y-48437D03*
X57950Y-14850D03*
X57950Y-13400D03*
M02*
